<svg xmlns="http://www.w3.org/2000/svg" xmlns:xlink="http://www.w3.org/1999/xlink" xmlns:lucid="lucid" width="1679.25" height="949.41"><g transform="translate(-29 20)" lucid:page-tab-id="m_I4U6ssNejc"><path d="M0 0h1760v1360H0z" fill="#fff"/><path d="M385.92 249.82H583.6v142.86H385.9z" stroke="#000" stroke-width="2" fill="#fff"/><use xlink:href="#a" transform="matrix(1,0,0,1,390.92085551121534,254.82432148957253) translate(1.1984567901234868 59.51805555555555)"/><use xlink:href="#b" transform="matrix(1,0,0,1,390.92085551121534,254.82432148957253) translate(81.00092592592594 59.51805555555555)"/><use xlink:href="#c" transform="matrix(1,0,0,1,390.92085551121534,254.82432148957253) translate(29.815123456790133 86.45138888888889)"/><use xlink:href="#d" transform="matrix(1,0,0,1,390.92085551121534,254.82432148957253) translate(59.74104938271606 86.45138888888889)"/><path d="M860 285.95h197.67V428.8H860z" stroke="#c92d39" stroke-width="2" fill="#fff"/><use xlink:href="#e" transform="matrix(1,0,0,1,865,290.94868375810256) translate(0.5438271604938478 59.51805555555555)"/><use xlink:href="#f" transform="matrix(1,0,0,1,865,290.94868375810256) translate(97.6783950617284 59.51805555555555)"/><use xlink:href="#g" transform="matrix(1,0,0,1,865,290.94868375810256) translate(168.75246913580247 59.51805555555555)"/><use xlink:href="#h" transform="matrix(1,0,0,1,865,290.94868375810256) translate(41.691975308641986 86.45138888888889)"/><use xlink:href="#i" transform="matrix(1,0,0,1,865,290.94868375810256) translate(84.08703703703704 86.45138888888889)"/><path d="M1120 285.95h197.67V428.8H1120z" stroke="#c92d39" stroke-width="2" fill="#fff"/><use xlink:href="#j" transform="matrix(1,0,0,1,1125,290.94868375810256) translate(46.025000000000006 42.89305555555555)"/><use xlink:href="#k" transform="matrix(1,0,0,1,1125,290.94868375810256) translate(100.8891975308642 42.89305555555555)"/><use xlink:href="#l" transform="matrix(1,0,0,1,1125,290.94868375810256) translate(44.778086419753095 69.82638888888889)"/><use xlink:href="#m" transform="matrix(1,0,0,1,1125,290.94868375810256) translate(11.267283950617298 96.75972222222221)"/><use xlink:href="#n" transform="matrix(1,0,0,1,1125,290.94868375810256) translate(113.3895061728395 96.75972222222221)"/><path d="M1077.48 576.1h197.67v142.84h-197.67z" stroke="#c92d39" stroke-width="2" fill="#fff"/><use xlink:href="#o" transform="matrix(1,0,0,1,1082.4820478090762,581.0902388451527) translate(15.506790123456796 59.51805555555555)"/><use xlink:href="#p" transform="matrix(1,0,0,1,1082.4820478090762,581.0902388451527) translate(78.97469135802469 59.51805555555555)"/><use xlink:href="#g" transform="matrix(1,0,0,1,1082.4820478090762,581.0902388451527) translate(153.7895061728395 59.51805555555555)"/><use xlink:href="#h" transform="matrix(1,0,0,1,1082.4820478090762,581.0902388451527) translate(41.691975308641986 86.45138888888889)"/><use xlink:href="#i" transform="matrix(1,0,0,1,1082.4820478090762,581.0902388451527) translate(84.08703703703704 86.45138888888889)"/><path d="M805.7 576.1h197.66v142.84H805.7z" stroke="#0c7cba" stroke-width="2" fill="#fff"/><use xlink:href="#q" transform="matrix(1,0,0,1,810.6870899074075,581.0902388451527) translate(12.389506172839518 59.51805555555555)"/><use xlink:href="#r" transform="matrix(1,0,0,1,810.6870899074075,581.0902388451527) translate(78.41358024691358 59.51805555555555)"/><use xlink:href="#s" transform="matrix(1,0,0,1,810.6870899074075,581.0902388451527) translate(110.77098765432099 59.51805555555555)"/><use xlink:href="#t" transform="matrix(1,0,0,1,810.6870899074075,581.0902388451527) translate(16.192592592592604 86.45138888888889)"/><use xlink:href="#h" transform="matrix(1,0,0,1,810.6870899074075,581.0902388451527) translate(67.19135802469135 86.45138888888889)"/><use xlink:href="#i" transform="matrix(1,0,0,1,810.6870899074075,581.0902388451527) translate(109.5864197530864 86.45138888888889)"/><path d="M1059.67 357.37h40.83" stroke="#000" stroke-width="2" fill="none"/><path d="M1059.7 358.37h-1.03v-2h1.02z"/><path d="M1115.76 357.37L1101.5 362v-9.26z" stroke="#000" stroke-width="2"/><path d="M1075.48 647.52h-52.62" stroke="#000" stroke-width="2" fill="none"/><path d="M1076.48 648.52h-1.02v-2h1.02z"/><path d="M1007.6 647.52l14.26-4.64v9.27z" stroke="#000" stroke-width="2"/><path d="M509.46 464.1l98.84 71.43-98.84 71.42-98.83-71.42z" stroke="#0c7cba" stroke-width="2" fill="#fff"/><use xlink:href="#u" transform="matrix(1,0,0,1,415.6294880477308,469.1013570440426) translate(34.153148148148155 71.98680555555555)"/><use xlink:href="#v" transform="matrix(1,0,0,1,415.6294880477308,469.1013570440426) translate(76.54820987654321 71.98680555555555)"/><path d="M803.7 647.52h-96.35v-112H628.5" stroke="#0c7cba" stroke-width="2" fill="none"/><path d="M804.7 648.52h-1.04v-2h1.03z" fill="#0c7cba"/><path d="M613.24 535.53l14.27-4.64v9.26z" stroke="#0c7cba" stroke-width="2" fill="#0c7cba"/><path d="M89.42 464.1H287.1v142.85H89.4z" stroke="#000" stroke-width="2" fill="#fff"/><path d="M109.18 464.1v142.85M267.32 464.1v142.85" stroke="#000" stroke-width="2" fill="none"/><use xlink:href="#w" transform="matrix(1,0,0,1,119.12589760954617,469.1013570440426) translate(12.173148148148158 44.05555555555556)"/><use xlink:href="#x" transform="matrix(1,0,0,1,119.12589760954617,469.1013570440426) translate(76.95030864197531 44.05555555555556)"/><use xlink:href="#t" transform="matrix(1,0,0,1,119.12589760954617,469.1013570440426) translate(20.30925925925927 70.9888888888889)"/><use xlink:href="#y" transform="matrix(1,0,0,1,119.12589760954617,469.1013570440426) translate(71.30802469135801 70.9888888888889)"/><use xlink:href="#i" transform="matrix(1,0,0,1,119.12589760954617,469.1013570440426) translate(38.38950617283951 97.92222222222222)"/><path d="M188.25 249.82l98.84 71.43-98.85 71.43-98.83-71.43z" stroke="#0c7cba" stroke-width="2" fill="#fff"/><use xlink:href="#u" transform="matrix(1,0,0,1,94.41726507303079,254.82432148957253) translate(39.88771604938273 59.51805555555555)"/><use xlink:href="#z" transform="matrix(1,0,0,1,94.41726507303079,254.82432148957253) translate(82.28277777777778 59.51805555555555)"/><use xlink:href="#A" transform="matrix(1,0,0,1,94.41726507303079,254.82432148957253) translate(60.369506172839515 86.45138888888889)"/><path d="M309.37 322.25H289.8v-2h19.57zm57.05 0h-20.46v-2h20.46z"/><path d="M289.82 322.25h-2.4l1.37-1-1.4-1h2.42zM381.68 321.25l-14.26 4.64v-9.3z"/><path d="M384.92 321.25l-18.5 6v-12zm-16.5 3.26l10.03-3.25-10.03-3.26z"/><use xlink:href="#B" transform="matrix(1,0,0,1,309.36648254034486,307.78333334106253) translate(0 17.955555555555552)"/><path d="M726.45 414.95v112.52h179.07v29.12h-2v-27.13H724.45V416.95h-95.2v-2zm-125.82 0v2H187.25V394.9h2v20.05z" fill="#0c7cba"/><path d="M189.25 394.94h-2v-1.75l1 .7 1-.7zM904.52 571.85l-4.63-14.26h9.26z" fill="#0c7cba"/><path d="M904.52 575.1l-6-18.5h12zm-3.26-16.5l3.26 10.02 3.26-10.03z" fill="#0c7cba"/><use xlink:href="#C" transform="matrix(1,0,0,1,600.6295497800536,402.4820170914359) translate(0 17.955555555555552)"/><path d="M330.2 536.53h-23.6v-2h23.6zm77.72 0H366.8v-2h41.12z"/><path d="M408.92 535.53l1.4 1h-2.42v-2h2.4zM305.6 540.16l-14.28-4.63 14.27-4.64z"/><path d="M306.6 541.54l-18.5-6 18.5-6.02zm-12.04-6l10.03 3.25v-6.53z"/><use xlink:href="#B" transform="matrix(1,0,0,1,330.20582037210266,522.0603688955325) translate(0 17.955555555555552)"/><path d="M510.46 439.3v22.57h-2V441.3h-291.5v-2zM41 322.24V439.3h147.33v2H39V320.24h30.2v2z" fill="#0c7cba"/><path d="M510.46 463.6l-1-.73-1 .72v-1.76h2zM84.47 321.25L70.2 325.9v-9.3z" fill="#0c7cba"/><path d="M87.7 321.25l-18.5 6v-12zm-16.5 3.26l10.04-3.25L71.2 318z" fill="#0c7cba"/><use xlink:href="#C" transform="matrix(1,0,0,1,188.33465304228832,426.82613087132364) translate(0 17.955555555555552)"/><path d="M1374 454.83l98.82 71.42-98.83 71.43-98.85-71.43z" stroke="#c92d39" stroke-width="2" fill="#fff"/><use xlink:href="#u" transform="matrix(1,0,0,1,1280.1511081011993,459.8280208076798) translate(23.117962962962984 71.98680555555555)"/><use xlink:href="#D" transform="matrix(1,0,0,1,1280.1511081011993,459.8280208076798) translate(65.51302469135803 71.98680555555555)"/><use xlink:href="#E" transform="matrix(1,0,0,1,1280.1511081011993,459.8280208076798) translate(103.91796296296296 71.98680555555555)"/><path d="M1319.67 357.37H1374v77.72" stroke="#000" stroke-width="2" fill="none"/><path d="M1319.7 358.37h-1.03v-2h1.02z"/><path d="M1374 450.36l-4.65-14.27h9.27z" stroke="#000" stroke-width="2"/><path d="M1331.07 648.52h-36.42v-2h36.42zm43.92 0h-7.33v-2h5.32v-46.6h2z"/><path d="M1375 599.94h-2v-1.75l1 .7 1-.7zM1293.65 652.15l-14.26-4.63 14.25-4.64z"/><path d="M1294.65 653.53l-18.5-6 18.5-6.03zm-12.03-6l10.03 3.24v-6.5z"/><use xlink:href="#B" transform="matrix(1,0,0,1,1331.0712854480134,634.0492506966426) translate(0 17.955555555555552)"/><path d="M1077.48 766.56h197.67V909.4h-197.67z" stroke="#000" stroke-width="2" fill="#fff"/><use xlink:href="#F" transform="matrix(1,0,0,1,1082.4820478090762,771.5587148935706) translate(29.908641975308655 59.51805555555555)"/><use xlink:href="#G" transform="matrix(1,0,0,1,1082.4820478090762,771.5587148935706) translate(110.77098765432098 59.51805555555555)"/><use xlink:href="#H" transform="matrix(1,0,0,1,1082.4820478090762,771.5587148935706) translate(39.198148148148164 86.45138888888889)"/><use xlink:href="#I" transform="matrix(1,0,0,1,1082.4820478090762,771.5587148935706) translate(107.77839506172839 86.45138888888889)"/><path d="M361.2 702.2H558.9v142.84H361.2z" stroke="#000" stroke-width="2" fill="#fff"/><use xlink:href="#J" transform="matrix(1,0,0,1,366.2122229747,707.1869521045647) translate(1.4166666666666998 71.98680555555555)"/><use xlink:href="#K" transform="matrix(1,0,0,1,366.2122229747,707.1869521045647) translate(46.24320987654323 71.98680555555555)"/><use xlink:href="#H" transform="matrix(1,0,0,1,366.2122229747,707.1869521045647) translate(76.97962962962964 71.98680555555555)"/><use xlink:href="#I" transform="matrix(1,0,0,1,366.2122229747,707.1869521045647) translate(145.55987654320984 71.98680555555555)"/><path d="M1540 454.83h76.83c39.44 0 71.42 31.98 71.42 71.42 0 39.45-31.98 71.43-71.42 71.43H1540z" stroke="#000" stroke-width="2" fill="#fff"/><use xlink:href="#L" transform="matrix(1,0,0,1,1545,459.8280208076798) translate(26.32561728395062 71.98680555555555)"/><use xlink:href="#M" transform="matrix(1,0,0,1,1545,459.8280208076798) translate(76.51388888888889 71.98680555555555)"/><path d="M1492.46 527.25h-16.93v-2h16.93z"/><path d="M1475.55 527.25h-2.4l1.38-1-1.4-1h2.42zM1535.76 526.25l-14.26 4.64v-9.28z"/><path d="M1539 526.25l-17.93 5.83v-11.65zm-16.5 3.26l10.03-3.25-10.03-3.26z"/><use xlink:href="#C" transform="matrix(1,0,0,1,1492.455380115421,512.7870326591698) translate(0 17.955555555555552)"/><path d="M1448.1 623.7l98.85 71.43-98.84 71.43-98.82-71.43z" stroke="#000" stroke-width="2" fill="#fff"/><use xlink:href="#u" transform="matrix(1,0,0,1,1354.2770057107448,628.7073578572573) translate(23.117962962962984 71.98680555555555)"/><use xlink:href="#D" transform="matrix(1,0,0,1,1354.2770057107448,628.7073578572573) translate(65.51302469135803 71.98680555555555)"/><use xlink:href="#E" transform="matrix(1,0,0,1,1354.2770057107448,628.7073578572573) translate(103.91796296296296 71.98680555555555)"/><path d="M1614.13 599.68v95.45h-46.97" stroke="#000" stroke-width="2" fill="none"/><path d="M1615.13 599.7h-2v-1.02h2z"/><path d="M1551.9 695.13l14.26-4.63v9.27z" stroke="#000" stroke-width="2"/><path d="M1346.57 694.13v2h-3.2v-2zm-51.92 1.9v-2h12.12v2z"/><path d="M1347.57 695.13l1.38 1h-2.4v-2h2.4zM1293.65 699.66l-14.26-4.64 14.25-4.63z"/><path d="M1294.65 701.03l-18.5-6 18.5-6.02zm-12.03-6l10.03 3.25v-6.52z"/><use xlink:href="#B" transform="matrix(1,0,0,1,1306.7684729401783,681.6663697087472) translate(0 17.955555555555552)"/><path d="M1382.92 838.98h-88.27v-2h88.27zm66.2 0h-37.58v-2h35.57v-68.2h2z"/><path d="M1449.1 768.82h-2v-1.75l1 .72 1-.73zM1293.65 842.62l-14.26-4.64 14.25-4.63z"/><path d="M1294.65 844l-18.5-6.02 18.5-6zm-12.03-6.02l10.03 3.26v-6.5z"/><use xlink:href="#C" transform="matrix(1,0,0,1,1382.9189272089966,824.5177267450605) translate(0 17.955555555555552)"/><path d="M461.05 653.57v29.12h-2v-27.13H413.8v-2zm-174.18 0v2h-99.62v-46.62h2v44.62z"/><path d="M189.25 608.98h-2v-1.03h2zM460.05 697.95l-4.64-14.26h9.28z"/><path d="M460.05 701.2l-6-18.5h12zm-3.26-16.5l3.25 10 3.26-10z"/><g><use xlink:href="#N" transform="matrix(1,0,0,1,286.8693871769548,641.1031664257935) translate(0 17.955555555555552)"/></g><path d="M740 261.25l80 60-80 60-80-60z" stroke="#000" stroke-width="2" fill="#fff"/><g><use xlink:href="#u" transform="matrix(1,0,0,1,665,266.25) translate(36.97413580246914 59.20555555555555)"/><use xlink:href="#O" transform="matrix(1,0,0,1,665,266.25) translate(79.3691975308642 59.20555555555555)"/></g><path d="M585.6 321.25h54.23" stroke="#000" stroke-width="2" fill="none"/><path d="M585.62 322.25h-1.03v-2h1.02z"/><path d="M655.1 321.25l-14.27 4.64v-9.3z" stroke="#000" stroke-width="2"/><path d="M741 421.5h32.75v2H739v-40h2zm99.5-63.13H831v65.13h-20.65v-2H829v-65.13h11.5z"/><path d="M741 383.53h-2v-1.78l1 .75 1-.75zM855.76 357.37L841.5 362v-9.26z"/><path d="M859 357.37l-18.5 6.02v-12.04zm-16.5 3.26l10.03-3.26-10.03-3.25z"/><g><use xlink:href="#B" transform="matrix(1,0,0,1,773.7516637450656,409.03333333333336) translate(0 17.955555555555552)"/></g><path d="M1440 285.95h197.67v120c-33-20.04-53.57-20.04-66.02-20.04-19.77 0-46.06 20.05-65.83 20.05-12.25 0-33 0-65.82-20.04z" stroke="#000" stroke-width="2" fill="#fff"/><g><use xlink:href="#P" transform="matrix(1,0,0,1,1445,290.9486837581025) translate(7.651234567901241 34.83055555555555)"/><use xlink:href="#Q" transform="matrix(1,0,0,1,1445,290.9486837581025) translate(91.1320987654321 34.83055555555555)"/><use xlink:href="#R" transform="matrix(1,0,0,1,1445,290.9486837581025) translate(159.58765432098764 34.83055555555555)"/><use xlink:href="#S" transform="matrix(1,0,0,1,1445,290.9486837581025) translate(6.186111111111131 61.763888888888886)"/><use xlink:href="#T" transform="matrix(1,0,0,1,1445,290.9486837581025) translate(105.8145061728395 61.763888888888886)"/><use xlink:href="#U" transform="matrix(1,0,0,1,1445,290.9486837581025) translate(130.75277777777777 61.763888888888886)"/></g><path d="M1539.83 266.45h-2V221H1166.2v-2h373.63zM1137.58 221H741v38h-2v-40h398.58z"/><path d="M741 260.75l-1-.75-1 .75v-1.78h2zM1538.83 281.7l-4.63-14.25h9.27z"/><path d="M1538.83 284.95l-6-18.5h12.02zm-3.25-16.5l3.25 10.03 3.26-10.03z"/><g><use xlink:href="#C" transform="matrix(1,0,0,1,1137.5832736187485,206.53333333333333) translate(0 17.955555555555552)"/></g><path d="M1438 346.1h-39V244.95H958.83v21.5" stroke="#000" stroke-width="2" fill="none"/><path d="M1439 347.1h-1.03v-2h1.03z"/><path d="M958.83 281.7l-4.63-14.25h9.27z" stroke="#000" stroke-width="2"/><path d="M640 0h449.37v74.53H640z" stroke="#000" stroke-opacity="0" stroke-width="2" fill="#fff" fill-opacity="0"/><g><use xlink:href="#V" transform="matrix(1,0,0,1,645,5) translate(116.51512345679015 37.761111111111106)"/><use xlink:href="#W" transform="matrix(1,0,0,1,645,5) translate(210.1780864197531 37.761111111111106)"/></g><path d="M560.88 773.6h343.64v-35.16" stroke="#000" stroke-width="2" fill="none"/><path d="M560.9 774.6h-1.02v-2h1.03z"/><path d="M904.52 723.18l4.64 14.26h-9.27z" stroke="#000" stroke-width="2"/><path d="M1075.48 837.98h-148.8v-99.54" stroke="#000" stroke-width="2" fill="none"/><path d="M1076.48 838.98h-1.02v-2h1.02z"/><path d="M926.68 723.18l4.63 14.26h-9.26z" stroke="#000" stroke-width="2"/><path d="M236.25 98.4c17.67 0 32 17.9 32 40s-14.33 40-32 40h-96c-17.67 0-32-17.9-32-40s14.33-40 32-40z" stroke="#000" stroke-width="2" fill="#fff"/><g><use xlink:href="#X" transform="matrix(1,0,0,1,113.25179521914106,103.39864297141321) translate(51.33981481481482 39.83055555555555)"/></g><path d="M188.25 180.4v49.7" stroke="#000" stroke-width="2" fill="none"/><path d="M189.25 180.42h-2v-1.02h2z"/><path d="M188.25 245.35l-4.63-14.26h9.27z" stroke="#000" stroke-width="2"/><defs><path d="M30 0v-248h33v221h125V0H30" id="Y"/><path d="M100-194c62-1 85 37 85 99 1 63-27 99-86 99S16-35 15-95c0-66 28-99 85-99zM99-20c44 1 53-31 53-75 0-43-8-75-51-75s-53 32-53 75 10 74 51 75" id="Z"/><path d="M143 0L79-87 56-68V0H24v-261h32v163l83-92h37l-77 82L181 0h-38" id="aa"/><path d="M84 4C-5 8 30-112 23-190h32v120c0 31 7 50 39 49 72-2 45-101 50-169h31l1 190h-30c-1-10 1-25-2-33-11 22-28 36-60 37" id="ab"/><path d="M115-194c55 1 70 41 70 98S169 2 115 4C84 4 66-9 55-30l1 105H24l-1-265h31l2 30c10-21 28-34 59-34zm-8 174c40 0 45-34 45-75s-6-73-45-74c-42 0-51 32-51 76 0 43 10 73 51 73" id="ac"/><g id="a"><use transform="matrix(0.06234567901234567,0,0,0.06234567901234567,0,0)" xlink:href="#Y"/><use transform="matrix(0.06234567901234567,0,0,0.06234567901234567,12.469135802469133,0)" xlink:href="#Z"/><use transform="matrix(0.06234567901234567,0,0,0.06234567901234567,24.938271604938265,0)" xlink:href="#Z"/><use transform="matrix(0.06234567901234567,0,0,0.06234567901234567,37.4074074074074,0)" xlink:href="#aa"/><use transform="matrix(0.06234567901234567,0,0,0.06234567901234567,48.62962962962962,0)" xlink:href="#ab"/><use transform="matrix(0.06234567901234567,0,0,0.06234567901234567,61.09876543209875,0)" xlink:href="#ac"/></g><path d="M135-143c-3-34-86-38-87 0 15 53 115 12 119 90S17 21 10-45l28-5c4 36 97 45 98 0-10-56-113-15-118-90-4-57 82-63 122-42 12 7 21 19 24 35" id="ad"/><path d="M16-82v-28h88v28H16" id="ae"/><path d="M100-194c63 0 86 42 84 106H49c0 40 14 67 53 68 26 1 43-12 49-29l28 8c-11 28-37 45-77 45C44 4 14-33 15-96c1-61 26-98 85-98zm52 81c6-60-76-77-97-28-3 7-6 17-6 28h103" id="af"/><path d="M114-163C36-179 61-72 57 0H25l-1-190h30c1 12-1 29 2 39 6-27 23-49 58-41v29" id="ag"/><path d="M108 0H70L1-190h34L89-25l56-165h34" id="ah"/><g id="b"><use transform="matrix(0.06234567901234567,0,0,0.06234567901234567,0,0)" xlink:href="#Z"/><use transform="matrix(0.06234567901234567,0,0,0.06234567901234567,12.469135802469133,0)" xlink:href="#ac"/><use transform="matrix(0.06234567901234567,0,0,0.06234567901234567,24.938271604938265,0)" xlink:href="#ad"/><use transform="matrix(0.06234567901234567,0,0,0.06234567901234567,36.16049382716049,0)" xlink:href="#ae"/><use transform="matrix(0.06234567901234567,0,0,0.06234567901234567,43.57962962962962,0)" xlink:href="#ad"/><use transform="matrix(0.06234567901234567,0,0,0.06234567901234567,54.80185185185184,0)" xlink:href="#af"/><use transform="matrix(0.06234567901234567,0,0,0.06234567901234567,67.27098765432098,0)" xlink:href="#ag"/><use transform="matrix(0.06234567901234567,0,0,0.06234567901234567,74.6901234567901,0)" xlink:href="#ah"/><use transform="matrix(0.06234567901234567,0,0,0.06234567901234567,85.91234567901232,0)" xlink:href="#af"/><use transform="matrix(0.06234567901234567,0,0,0.06234567901234567,98.38148148148144,0)" xlink:href="#ag"/></g><path d="M115-194c53 0 69 39 70 98 0 66-23 100-70 100C84 3 66-7 56-30L54 0H23l1-261h32v101c10-23 28-34 59-34zm-8 174c40 0 45-34 45-75 0-40-5-75-45-74-42 0-51 32-51 76 0 43 10 73 51 73" id="ai"/><path d="M179-190L93 31C79 59 56 82 12 73V49c39 6 53-20 64-50L1-190h34L92-34l54-156h33" id="aj"/><g id="c"><use transform="matrix(0.06234567901234567,0,0,0.06234567901234567,0,0)" xlink:href="#ai"/><use transform="matrix(0.06234567901234567,0,0,0.06234567901234567,12.469135802469133,0)" xlink:href="#aj"/></g><path d="M106-169C34-169 62-67 57 0H25v-261h32l-1 103c12-21 28-36 61-36 89 0 53 116 60 194h-32v-121c2-32-8-49-39-48" id="ak"/><path d="M59-47c-2 24 18 29 38 22v24C64 9 27 4 27-40v-127H5v-23h24l9-43h21v43h35v23H59v120" id="al"/><path d="M117-194c89-4 53 116 60 194h-32v-121c0-31-8-49-39-48C34-167 62-67 57 0H25l-1-190h30c1 10-1 24 2 32 11-22 29-35 61-36" id="am"/><path d="M141-36C126-15 110 5 73 4 37 3 15-17 15-53c-1-64 63-63 125-63 3-35-9-54-41-54-24 1-41 7-42 31l-33-3c5-37 33-52 76-52 45 0 72 20 72 64v82c-1 20 7 32 28 27v20c-31 9-61-2-59-35zM48-53c0 20 12 33 32 33 41-3 63-29 60-74-43 2-92-5-92 41" id="an"/><path d="M210-169c-67 3-38 105-44 169h-31v-121c0-29-5-50-35-48C34-165 62-65 56 0H25l-1-190h30c1 10-1 24 2 32 10-44 99-50 107 0 11-21 27-35 58-36 85-2 47 119 55 194h-31v-121c0-29-5-49-35-48" id="ao"/><g id="d"><use transform="matrix(0.06234567901234567,0,0,0.06234567901234567,0,0)" xlink:href="#ak"/><use transform="matrix(0.06234567901234567,0,0,0.06234567901234567,12.469135802469133,0)" xlink:href="#Z"/><use transform="matrix(0.06234567901234567,0,0,0.06234567901234567,24.938271604938265,0)" xlink:href="#ad"/><use transform="matrix(0.06234567901234567,0,0,0.06234567901234567,36.16049382716049,0)" xlink:href="#al"/><use transform="matrix(0.06234567901234567,0,0,0.06234567901234567,42.39506172839505,0)" xlink:href="#am"/><use transform="matrix(0.06234567901234567,0,0,0.06234567901234567,54.86419753086418,0)" xlink:href="#an"/><use transform="matrix(0.06234567901234567,0,0,0.06234567901234567,67.33333333333331,0)" xlink:href="#ao"/><use transform="matrix(0.06234567901234567,0,0,0.06234567901234567,85.97469135802467,0)" xlink:href="#af"/></g><path d="M30 0v-248h187v28H63v79h144v27H63v87h162V0H30" id="ap"/><path d="M24 0v-261h32V0H24" id="aq"/><path d="M24-231v-30h32v30H24zM24 0v-190h32V0H24" id="ar"/><g id="e"><use transform="matrix(0.06234567901234567,0,0,0.06234567901234567,0,0)" xlink:href="#ap"/><use transform="matrix(0.06234567901234567,0,0,0.06234567901234567,14.96296296296296,0)" xlink:href="#ad"/><use transform="matrix(0.06234567901234567,0,0,0.06234567901234567,26.18518518518518,0)" xlink:href="#al"/><use transform="matrix(0.06234567901234567,0,0,0.06234567901234567,32.419753086419746,0)" xlink:href="#an"/><use transform="matrix(0.06234567901234567,0,0,0.06234567901234567,44.88888888888888,0)" xlink:href="#ai"/><use transform="matrix(0.06234567901234567,0,0,0.06234567901234567,57.35802469135801,0)" xlink:href="#aq"/><use transform="matrix(0.06234567901234567,0,0,0.06234567901234567,62.28333333333332,0)" xlink:href="#ar"/><use transform="matrix(0.06234567901234567,0,0,0.06234567901234567,67.20864197530862,0)" xlink:href="#ad"/><use transform="matrix(0.06234567901234567,0,0,0.06234567901234567,78.43086419753084,0)" xlink:href="#ak"/></g><path d="M96-169c-40 0-48 33-48 73s9 75 48 75c24 0 41-14 43-38l32 2c-6 37-31 61-74 61-59 0-76-41-82-99-10-93 101-131 147-64 4 7 5 14 7 22l-32 3c-4-21-16-35-41-35" id="as"/><g id="f"><use transform="matrix(0.06234567901234567,0,0,0.06234567901234567,0,0)" xlink:href="#ad"/><use transform="matrix(0.06234567901234567,0,0,0.06234567901234567,11.22222222222222,0)" xlink:href="#Z"/><use transform="matrix(0.06234567901234567,0,0,0.06234567901234567,23.691358024691354,0)" xlink:href="#as"/><use transform="matrix(0.06234567901234567,0,0,0.06234567901234567,34.913580246913575,0)" xlink:href="#aa"/><use transform="matrix(0.06234567901234567,0,0,0.06234567901234567,46.1358024691358,0)" xlink:href="#af"/><use transform="matrix(0.06234567901234567,0,0,0.06234567901234567,58.60493827160493,0)" xlink:href="#al"/></g><g id="g"><use transform="matrix(0.06234567901234567,0,0,0.06234567901234567,0,0)" xlink:href="#al"/><use transform="matrix(0.06234567901234567,0,0,0.06234567901234567,6.234567901234566,0)" xlink:href="#Z"/></g><g id="h"><use transform="matrix(0.06234567901234567,0,0,0.06234567901234567,0,0)" xlink:href="#Z"/><use transform="matrix(0.06234567901234567,0,0,0.06234567901234567,12.469135802469133,0)" xlink:href="#ac"/><use transform="matrix(0.06234567901234567,0,0,0.06234567901234567,24.938271604938265,0)" xlink:href="#ad"/></g><g id="i"><use transform="matrix(0.06234567901234567,0,0,0.06234567901234567,0,0)" xlink:href="#ad"/><use transform="matrix(0.06234567901234567,0,0,0.06234567901234567,11.22222222222222,0)" xlink:href="#af"/><use transform="matrix(0.06234567901234567,0,0,0.06234567901234567,23.691358024691354,0)" xlink:href="#ag"/><use transform="matrix(0.06234567901234567,0,0,0.06234567901234567,31.11049382716049,0)" xlink:href="#ah"/><use transform="matrix(0.06234567901234567,0,0,0.06234567901234567,42.33271604938271,0)" xlink:href="#af"/><use transform="matrix(0.06234567901234567,0,0,0.06234567901234567,54.80185185185184,0)" xlink:href="#ag"/></g><path d="M85-194c31 0 48 13 60 33l-1-100h32l1 261h-30c-2-10 0-23-3-31C134-8 116 4 85 4 32 4 16-35 15-94c0-66 23-100 70-100zm9 24c-40 0-46 34-46 75 0 40 6 74 45 74 42 0 51-32 51-76 0-42-9-74-50-73" id="at"/><g id="j"><use transform="matrix(0.06234567901234567,0,0,0.06234567901234567,0,0)" xlink:href="#ad"/><use transform="matrix(0.06234567901234567,0,0,0.06234567901234567,11.22222222222222,0)" xlink:href="#af"/><use transform="matrix(0.06234567901234567,0,0,0.06234567901234567,23.691358024691354,0)" xlink:href="#am"/><use transform="matrix(0.06234567901234567,0,0,0.06234567901234567,36.16049382716049,0)" xlink:href="#at"/></g><path d="M206 0h-36l-40-164L89 0H53L-1-190h32L70-26l43-164h34l41 164 42-164h31" id="au"/><g id="k"><use transform="matrix(0.06234567901234567,0,0,0.06234567901234567,0,0)" xlink:href="#Z"/><use transform="matrix(0.06234567901234567,0,0,0.06234567901234567,12.469135802469133,0)" xlink:href="#au"/><use transform="matrix(0.06234567901234567,0,0,0.06234567901234567,28.61666666666666,0)" xlink:href="#am"/></g><g id="l"><use transform="matrix(0.06234567901234567,0,0,0.06234567901234567,0,0)" xlink:href="#ak"/><use transform="matrix(0.06234567901234567,0,0,0.06234567901234567,12.469135802469133,0)" xlink:href="#Z"/><use transform="matrix(0.06234567901234567,0,0,0.06234567901234567,24.938271604938265,0)" xlink:href="#ad"/><use transform="matrix(0.06234567901234567,0,0,0.06234567901234567,36.16049382716049,0)" xlink:href="#al"/><use transform="matrix(0.06234567901234567,0,0,0.06234567901234567,42.39506172839505,0)" xlink:href="#am"/><use transform="matrix(0.06234567901234567,0,0,0.06234567901234567,54.86419753086418,0)" xlink:href="#an"/><use transform="matrix(0.06234567901234567,0,0,0.06234567901234567,67.33333333333331,0)" xlink:href="#ao"/><use transform="matrix(0.06234567901234567,0,0,0.06234567901234567,85.97469135802467,0)" xlink:href="#af"/></g><path d="M87 75C49 33 22-17 22-94c0-76 28-126 65-167h31c-38 41-64 92-64 168S80 34 118 75H87" id="av"/><g id="m"><use transform="matrix(0.06234567901234567,0,0,0.06234567901234567,0,0)" xlink:href="#av"/><use transform="matrix(0.06234567901234567,0,0,0.06234567901234567,7.4191358024691345,0)" xlink:href="#an"/><use transform="matrix(0.06234567901234567,0,0,0.06234567901234567,19.888271604938268,0)" xlink:href="#as"/><use transform="matrix(0.06234567901234567,0,0,0.06234567901234567,31.11049382716049,0)" xlink:href="#al"/><use transform="matrix(0.06234567901234567,0,0,0.06234567901234567,37.34506172839505,0)" xlink:href="#ar"/><use transform="matrix(0.06234567901234567,0,0,0.06234567901234567,42.27037037037036,0)" xlink:href="#ah"/><use transform="matrix(0.06234567901234567,0,0,0.06234567901234567,53.49259259259258,0)" xlink:href="#an"/><use transform="matrix(0.06234567901234567,0,0,0.06234567901234567,65.96172839506171,0)" xlink:href="#al"/><use transform="matrix(0.06234567901234567,0,0,0.06234567901234567,72.19629629629628,0)" xlink:href="#af"/><use transform="matrix(0.06234567901234567,0,0,0.06234567901234567,84.66543209876542,0)" xlink:href="#ad"/></g><path d="M33-261c38 41 65 92 65 168S71 34 33 75H2C39 34 66-17 66-93S39-220 2-261h31" id="aw"/><g id="n"><use transform="matrix(0.06234567901234567,0,0,0.06234567901234567,0,0)" xlink:href="#an"/><use transform="matrix(0.06234567901234567,0,0,0.06234567901234567,12.469135802469133,0)" xlink:href="#aq"/><use transform="matrix(0.06234567901234567,0,0,0.06234567901234567,17.39444444444444,0)" xlink:href="#an"/><use transform="matrix(0.06234567901234567,0,0,0.06234567901234567,29.86358024691357,0)" xlink:href="#ag"/><use transform="matrix(0.06234567901234567,0,0,0.06234567901234567,37.28271604938271,0)" xlink:href="#ao"/><use transform="matrix(0.06234567901234567,0,0,0.06234567901234567,55.924074074074056,0)" xlink:href="#aw"/></g><path d="M212-179c-10-28-35-45-73-45-59 0-87 40-87 99 0 60 29 101 89 101 43 0 62-24 78-52l27 14C228-24 195 4 139 4 59 4 22-46 18-125c-6-104 99-153 187-111 19 9 31 26 39 46" id="ax"/><g id="o"><use transform="matrix(0.06234567901234567,0,0,0.06234567901234567,0,0)" xlink:href="#ax"/><use transform="matrix(0.06234567901234567,0,0,0.06234567901234567,16.147530864197527,0)" xlink:href="#aq"/><use transform="matrix(0.06234567901234567,0,0,0.06234567901234567,21.072839506172834,0)" xlink:href="#Z"/><use transform="matrix(0.06234567901234567,0,0,0.06234567901234567,33.541975308641966,0)" xlink:href="#ad"/><use transform="matrix(0.06234567901234567,0,0,0.06234567901234567,44.76419753086419,0)" xlink:href="#af"/></g><path d="M185-189c-5-48-123-54-124 2 14 75 158 14 163 119 3 78-121 87-175 55-17-10-28-26-33-46l33-7c5 56 141 63 141-1 0-78-155-14-162-118-5-82 145-84 179-34 5 7 8 16 11 25" id="ay"/><g id="p"><use transform="matrix(0.06234567901234567,0,0,0.06234567901234567,0,0)" xlink:href="#ay"/><use transform="matrix(0.06234567901234567,0,0,0.06234567901234567,14.96296296296296,0)" xlink:href="#Z"/><use transform="matrix(0.06234567901234567,0,0,0.06234567901234567,27.432098765432094,0)" xlink:href="#as"/><use transform="matrix(0.06234567901234567,0,0,0.06234567901234567,38.654320987654316,0)" xlink:href="#aa"/><use transform="matrix(0.06234567901234567,0,0,0.06234567901234567,49.87654320987654,0)" xlink:href="#af"/><use transform="matrix(0.06234567901234567,0,0,0.06234567901234567,62.34567901234567,0)" xlink:href="#al"/></g><g id="q"><use transform="matrix(0.06234567901234567,0,0,0.06234567901234567,0,0)" xlink:href="#Y"/><use transform="matrix(0.06234567901234567,0,0,0.06234567901234567,12.469135802469133,0)" xlink:href="#ar"/><use transform="matrix(0.06234567901234567,0,0,0.06234567901234567,17.39444444444444,0)" xlink:href="#ad"/><use transform="matrix(0.06234567901234567,0,0,0.06234567901234567,28.61666666666666,0)" xlink:href="#al"/><use transform="matrix(0.06234567901234567,0,0,0.06234567901234567,34.85123456790123,0)" xlink:href="#af"/><use transform="matrix(0.06234567901234567,0,0,0.06234567901234567,47.32037037037036,0)" xlink:href="#am"/></g><path d="M101-234c-31-9-42 10-38 44h38v23H63V0H32v-167H5v-23h27c-7-52 17-82 69-68v24" id="az"/><g id="r"><use transform="matrix(0.06234567901234567,0,0,0.06234567901234567,0,0)" xlink:href="#az"/><use transform="matrix(0.06234567901234567,0,0,0.06234567901234567,6.234567901234566,0)" xlink:href="#Z"/><use transform="matrix(0.06234567901234567,0,0,0.06234567901234567,18.7037037037037,0)" xlink:href="#ag"/></g><g id="s"><use transform="matrix(0.06234567901234567,0,0,0.06234567901234567,0,0)" xlink:href="#ad"/><use transform="matrix(0.06234567901234567,0,0,0.06234567901234567,11.22222222222222,0)" xlink:href="#Z"/><use transform="matrix(0.06234567901234567,0,0,0.06234567901234567,23.691358024691354,0)" xlink:href="#as"/><use transform="matrix(0.06234567901234567,0,0,0.06234567901234567,34.913580246913575,0)" xlink:href="#aa"/><use transform="matrix(0.06234567901234567,0,0,0.06234567901234567,46.1358024691358,0)" xlink:href="#af"/><use transform="matrix(0.06234567901234567,0,0,0.06234567901234567,58.60493827160493,0)" xlink:href="#al"/></g><g id="t"><use transform="matrix(0.06234567901234567,0,0,0.06234567901234567,0,0)" xlink:href="#az"/><use transform="matrix(0.06234567901234567,0,0,0.06234567901234567,6.234567901234566,0)" xlink:href="#ag"/><use transform="matrix(0.06234567901234567,0,0,0.06234567901234567,13.653703703703702,0)" xlink:href="#Z"/><use transform="matrix(0.06234567901234567,0,0,0.06234567901234567,26.122839506172834,0)" xlink:href="#ao"/></g><path d="M143 4C61 4 22-44 18-125c-5-107 100-154 193-111 17 8 29 25 37 43l-32 9c-13-25-37-40-76-40-61 0-88 39-88 99 0 61 29 100 91 101 35 0 62-11 79-27v-45h-74v-28h105v86C228-13 192 4 143 4" id="aA"/><g id="u"><use transform="matrix(0.06234567901234567,0,0,0.06234567901234567,0,0)" xlink:href="#aA"/><use transform="matrix(0.06234567901234567,0,0,0.06234567901234567,17.456790123456788,0)" xlink:href="#Z"/><use transform="matrix(0.06234567901234567,0,0,0.06234567901234567,29.92592592592592,0)" xlink:href="#al"/></g><path d="M103-251c84 0 111 97 45 133-19 10-37 24-39 52H78c0-63 77-55 77-114 0-30-21-42-52-43-32 0-53 17-56 46l-32-2c7-45 34-72 88-72zM77 0v-35h34V0H77" id="aB"/><g id="v"><use transform="matrix(0.06234567901234567,0,0,0.06234567901234567,0,0)" xlink:href="#ad"/><use transform="matrix(0.06234567901234567,0,0,0.06234567901234567,11.22222222222222,0)" xlink:href="#Z"/><use transform="matrix(0.06234567901234567,0,0,0.06234567901234567,23.691358024691354,0)" xlink:href="#as"/><use transform="matrix(0.06234567901234567,0,0,0.06234567901234567,34.913580246913575,0)" xlink:href="#aa"/><use transform="matrix(0.06234567901234567,0,0,0.06234567901234567,46.1358024691358,0)" xlink:href="#af"/><use transform="matrix(0.06234567901234567,0,0,0.06234567901234567,58.60493827160493,0)" xlink:href="#al"/><use transform="matrix(0.06234567901234567,0,0,0.06234567901234567,64.83950617283949,0)" xlink:href="#aB"/></g><path d="M30-248c87 1 191-15 191 75 0 78-77 80-158 76V0H30v-248zm33 125c57 0 124 11 124-50 0-59-68-47-124-48v98" id="aC"/><g id="w"><use transform="matrix(0.06234567901234567,0,0,0.06234567901234567,0,0)" xlink:href="#aC"/><use transform="matrix(0.06234567901234567,0,0,0.06234567901234567,14.96296296296296,0)" xlink:href="#an"/><use transform="matrix(0.06234567901234567,0,0,0.06234567901234567,27.432098765432094,0)" xlink:href="#ag"/><use transform="matrix(0.06234567901234567,0,0,0.06234567901234567,34.85123456790123,0)" xlink:href="#ad"/><use transform="matrix(0.06234567901234567,0,0,0.06234567901234567,46.07345679012345,0)" xlink:href="#af"/></g><path d="M33 0v-248h34V0H33" id="aD"/><g id="x"><use transform="matrix(0.06234567901234567,0,0,0.06234567901234567,0,0)" xlink:href="#aD"/><use transform="matrix(0.06234567901234567,0,0,0.06234567901234567,6.234567901234566,0)" xlink:href="#am"/><use transform="matrix(0.06234567901234567,0,0,0.06234567901234567,18.7037037037037,0)" xlink:href="#ac"/><use transform="matrix(0.06234567901234567,0,0,0.06234567901234567,31.17283950617283,0)" xlink:href="#ab"/><use transform="matrix(0.06234567901234567,0,0,0.06234567901234567,43.64197530864196,0)" xlink:href="#al"/></g><path d="M140-251c81 0 123 46 123 126C263-46 219 4 140 4 59 4 17-45 17-125s42-126 123-126zm0 227c63 0 89-41 89-101s-29-99-89-99c-61 0-89 39-89 99S79-25 140-24" id="aE"/><g id="y"><use transform="matrix(0.06234567901234567,0,0,0.06234567901234567,0,0)" xlink:href="#aE"/><use transform="matrix(0.06234567901234567,0,0,0.06234567901234567,17.456790123456788,0)" xlink:href="#aC"/><use transform="matrix(0.06234567901234567,0,0,0.06234567901234567,32.419753086419746,0)" xlink:href="#ay"/></g><path d="M160-131c35 5 61 23 61 61C221 17 115-2 30 0v-248c76 3 177-17 177 60 0 33-19 50-47 57zm-97-11c50-1 110 9 110-42 0-47-63-36-110-37v79zm0 115c55-2 124 14 124-45 0-56-70-42-124-44v89" id="aF"/><g id="z"><use transform="matrix(0.06234567901234567,0,0,0.06234567901234567,0,0)" xlink:href="#aF"/><use transform="matrix(0.06234567901234567,0,0,0.06234567901234567,14.96296296296296,0)" xlink:href="#ab"/><use transform="matrix(0.06234567901234567,0,0,0.06234567901234567,27.432098765432094,0)" xlink:href="#al"/><use transform="matrix(0.06234567901234567,0,0,0.06234567901234567,33.66666666666666,0)" xlink:href="#al"/><use transform="matrix(0.06234567901234567,0,0,0.06234567901234567,39.90123456790123,0)" xlink:href="#Z"/><use transform="matrix(0.06234567901234567,0,0,0.06234567901234567,52.37037037037036,0)" xlink:href="#am"/></g><g id="A"><use transform="matrix(0.06234567901234567,0,0,0.06234567901234567,0,0)" xlink:href="#ac"/><use transform="matrix(0.06234567901234567,0,0,0.06234567901234567,12.469135802469133,0)" xlink:href="#ag"/><use transform="matrix(0.06234567901234567,0,0,0.06234567901234567,19.888271604938268,0)" xlink:href="#af"/><use transform="matrix(0.06234567901234567,0,0,0.06234567901234567,32.3574074074074,0)" xlink:href="#ad"/><use transform="matrix(0.06234567901234567,0,0,0.06234567901234567,43.57962962962962,0)" xlink:href="#ad"/><use transform="matrix(0.06234567901234567,0,0,0.06234567901234567,54.80185185185184,0)" xlink:href="#aB"/></g><path d="M137-103V0h-34v-103L8-248h37l75 118 75-118h37" id="aG"/><g id="B"><use transform="matrix(0.06234567901234567,0,0,0.06234567901234567,0,0)" xlink:href="#aG"/><use transform="matrix(0.06234567901234567,0,0,0.06234567901234567,12.905555555555553,0)" xlink:href="#af"/><use transform="matrix(0.06234567901234567,0,0,0.06234567901234567,25.374691358024684,0)" xlink:href="#ad"/></g><path d="M190 0L58-211 59 0H30v-248h39L202-35l-2-213h31V0h-41" id="aH"/><g id="C"><use transform="matrix(0.06234567901234567,0,0,0.06234567901234567,0,0)" xlink:href="#aH"/><use transform="matrix(0.06234567901234567,0,0,0.06234567901234567,16.147530864197527,0)" xlink:href="#Z"/></g><path d="M47-170H22l-4-78h33" id="aI"/><g id="D"><use transform="matrix(0.06234567901234567,0,0,0.06234567901234567,0,0)" xlink:href="#aI"/><use transform="matrix(0.06234567901234567,0,0,0.06234567901234567,4.239506172839505,0)" xlink:href="#Z"/><use transform="matrix(0.06234567901234567,0,0,0.06234567901234567,16.708641975308637,0)" xlink:href="#aa"/><use transform="matrix(0.06234567901234567,0,0,0.06234567901234567,27.93086419753086,0)" xlink:href="#aI"/></g><g id="E"><use transform="matrix(0.06234567901234567,0,0,0.06234567901234567,0,0)" xlink:href="#ag"/><use transform="matrix(0.06234567901234567,0,0,0.06234567901234567,7.4191358024691345,0)" xlink:href="#af"/><use transform="matrix(0.06234567901234567,0,0,0.06234567901234567,19.888271604938268,0)" xlink:href="#ac"/><use transform="matrix(0.06234567901234567,0,0,0.06234567901234567,32.3574074074074,0)" xlink:href="#aq"/><use transform="matrix(0.06234567901234567,0,0,0.06234567901234567,37.28271604938271,0)" xlink:href="#aj"/><use transform="matrix(0.06234567901234567,0,0,0.06234567901234567,48.50493827160493,0)" xlink:href="#aB"/></g><path d="M233-177c-1 41-23 64-60 70L243 0h-38l-65-103H63V0H30v-248c88 3 205-21 203 71zM63-129c60-2 137 13 137-47 0-61-80-42-137-45v92" id="aJ"/><g id="F"><use transform="matrix(0.06234567901234567,0,0,0.06234567901234567,0,0)" xlink:href="#aJ"/><use transform="matrix(0.06234567901234567,0,0,0.06234567901234567,16.147530864197527,0)" xlink:href="#an"/><use transform="matrix(0.06234567901234567,0,0,0.06234567901234567,28.61666666666666,0)" xlink:href="#ac"/><use transform="matrix(0.06234567901234567,0,0,0.06234567901234567,41.08580246913579,0)" xlink:href="#ar"/><use transform="matrix(0.06234567901234567,0,0,0.06234567901234567,46.0111111111111,0)" xlink:href="#at"/><use transform="matrix(0.06234567901234567,0,0,0.06234567901234567,58.48024691358023,0)" xlink:href="#aq"/><use transform="matrix(0.06234567901234567,0,0,0.06234567901234567,63.40555555555554,0)" xlink:href="#aj"/></g><g id="G"><use transform="matrix(0.06234567901234567,0,0,0.06234567901234567,0,0)" xlink:href="#az"/><use transform="matrix(0.06234567901234567,0,0,0.06234567901234567,6.234567901234566,0)" xlink:href="#aq"/><use transform="matrix(0.06234567901234567,0,0,0.06234567901234567,11.159876543209874,0)" xlink:href="#an"/><use transform="matrix(0.06234567901234567,0,0,0.06234567901234567,23.62901234567901,0)" xlink:href="#ad"/><use transform="matrix(0.06234567901234567,0,0,0.06234567901234567,34.85123456790123,0)" xlink:href="#ak"/></g><g id="H"><use transform="matrix(0.06234567901234567,0,0,0.06234567901234567,0,0)" xlink:href="#ai"/><use transform="matrix(0.06234567901234567,0,0,0.06234567901234567,12.469135802469133,0)" xlink:href="#ab"/><use transform="matrix(0.06234567901234567,0,0,0.06234567901234567,24.938271604938265,0)" xlink:href="#al"/><use transform="matrix(0.06234567901234567,0,0,0.06234567901234567,31.17283950617283,0)" xlink:href="#al"/><use transform="matrix(0.06234567901234567,0,0,0.06234567901234567,37.4074074074074,0)" xlink:href="#Z"/><use transform="matrix(0.06234567901234567,0,0,0.06234567901234567,49.87654320987653,0)" xlink:href="#am"/></g><path d="M177-190C167-65 218 103 67 71c-23-6-38-20-44-43l32-5c15 47 100 32 89-28v-30C133-14 115 1 83 1 29 1 15-40 15-95c0-56 16-97 71-98 29-1 48 16 59 35 1-10 0-23 2-32h30zM94-22c36 0 50-32 50-73 0-42-14-75-50-75-39 0-46 34-46 75s6 73 46 73" id="aK"/><g id="I"><use transform="matrix(0.06234567901234567,0,0,0.06234567901234567,0,0)" xlink:href="#aq"/><use transform="matrix(0.06234567901234567,0,0,0.06234567901234567,4.925308641975308,0)" xlink:href="#ar"/><use transform="matrix(0.06234567901234567,0,0,0.06234567901234567,9.850617283950616,0)" xlink:href="#aK"/><use transform="matrix(0.06234567901234567,0,0,0.06234567901234567,22.319753086419748,0)" xlink:href="#ak"/><use transform="matrix(0.06234567901234567,0,0,0.06234567901234567,34.78888888888888,0)" xlink:href="#al"/></g><g id="J"><use transform="matrix(0.06234567901234567,0,0,0.06234567901234567,0,0)" xlink:href="#al"/><use transform="matrix(0.06234567901234567,0,0,0.06234567901234567,6.234567901234566,0)" xlink:href="#ab"/><use transform="matrix(0.06234567901234567,0,0,0.06234567901234567,18.7037037037037,0)" xlink:href="#ag"/><use transform="matrix(0.06234567901234567,0,0,0.06234567901234567,26.122839506172834,0)" xlink:href="#am"/></g><g id="K"><use transform="matrix(0.06234567901234567,0,0,0.06234567901234567,0,0)" xlink:href="#Z"/><use transform="matrix(0.06234567901234567,0,0,0.06234567901234567,12.469135802469133,0)" xlink:href="#az"/><use transform="matrix(0.06234567901234567,0,0,0.06234567901234567,18.26728395061728,0)" xlink:href="#az"/></g><path d="M266 0h-40l-56-210L115 0H75L2-248h35L96-30l15-64 43-154h32l59 218 59-218h35" id="aL"/><g id="L"><use transform="matrix(0.06234567901234567,0,0,0.06234567901234567,0,0)" xlink:href="#aL"/><use transform="matrix(0.06234567901234567,0,0,0.06234567901234567,20.32469135802469,0)" xlink:href="#an"/><use transform="matrix(0.06234567901234567,0,0,0.06234567901234567,32.79382716049382,0)" xlink:href="#ar"/><use transform="matrix(0.06234567901234567,0,0,0.06234567901234567,37.719135802469125,0)" xlink:href="#al"/></g><path d="M27 0v-27h64v-190l-56 39v-29l58-41h29v221h61V0H27" id="aM"/><path d="M101-251c68 0 85 55 85 127S166 4 100 4C33 4 14-52 14-124c0-73 17-127 87-127zm-1 229c47 0 54-49 54-102s-4-102-53-102c-51 0-55 48-55 102 0 53 5 102 54 102" id="aN"/><g id="M"><use transform="matrix(0.06234567901234567,0,0,0.06234567901234567,0,0)" xlink:href="#aM"/><use transform="matrix(0.06234567901234567,0,0,0.06234567901234567,12.469135802469133,0)" xlink:href="#aN"/><use transform="matrix(0.06234567901234567,0,0,0.06234567901234567,24.938271604938265,0)" xlink:href="#ad"/></g><path d="M63-220v92h138v28H63V0H30v-248h175v28H63" id="aO"/><g id="N"><use transform="matrix(0.06234567901234567,0,0,0.06234567901234567,0,0)" xlink:href="#aJ"/><use transform="matrix(0.06234567901234567,0,0,0.06234567901234567,16.147530864197527,0)" xlink:href="#af"/><use transform="matrix(0.06234567901234567,0,0,0.06234567901234567,28.61666666666666,0)" xlink:href="#ad"/><use transform="matrix(0.06234567901234567,0,0,0.06234567901234567,39.83888888888888,0)" xlink:href="#af"/><use transform="matrix(0.06234567901234567,0,0,0.06234567901234567,52.308024691358014,0)" xlink:href="#al"/><use transform="matrix(0.06234567901234567,0,0,0.06234567901234567,58.542592592592584,0)" xlink:href="#ae"/><use transform="matrix(0.06234567901234567,0,0,0.06234567901234567,65.96172839506171,0)" xlink:href="#aO"/><use transform="matrix(0.06234567901234567,0,0,0.06234567901234567,79.61543209876541,0)" xlink:href="#an"/><use transform="matrix(0.06234567901234567,0,0,0.06234567901234567,92.08456790123455,0)" xlink:href="#ab"/><use transform="matrix(0.06234567901234567,0,0,0.06234567901234567,104.55370370370369,0)" xlink:href="#aq"/><use transform="matrix(0.06234567901234567,0,0,0.06234567901234567,109.479012345679,0)" xlink:href="#al"/><use transform="matrix(0.06234567901234567,0,0,0.06234567901234567,115.71358024691357,0)" xlink:href="#ad"/></g><g id="O"><use transform="matrix(0.06234567901234567,0,0,0.06234567901234567,0,0)" xlink:href="#aD"/><use transform="matrix(0.06234567901234567,0,0,0.06234567901234567,6.234567901234566,0)" xlink:href="#aC"/><use transform="matrix(0.06234567901234567,0,0,0.06234567901234567,21.197530864197525,0)" xlink:href="#aB"/></g><g id="P"><use transform="matrix(0.06234567901234567,0,0,0.06234567901234567,0,0)" xlink:href="#ax"/><use transform="matrix(0.06234567901234567,0,0,0.06234567901234567,16.147530864197527,0)" xlink:href="#an"/><use transform="matrix(0.06234567901234567,0,0,0.06234567901234567,28.61666666666666,0)" xlink:href="#as"/><use transform="matrix(0.06234567901234567,0,0,0.06234567901234567,39.83888888888888,0)" xlink:href="#ak"/><use transform="matrix(0.06234567901234567,0,0,0.06234567901234567,52.308024691358014,0)" xlink:href="#af"/><use transform="matrix(0.06234567901234567,0,0,0.06234567901234567,64.77716049382715,0)" xlink:href="#at"/></g><g id="Q"><use transform="matrix(0.06234567901234567,0,0,0.06234567901234567,0,0)" xlink:href="#ad"/><use transform="matrix(0.06234567901234567,0,0,0.06234567901234567,11.22222222222222,0)" xlink:href="#af"/><use transform="matrix(0.06234567901234567,0,0,0.06234567901234567,23.691358024691354,0)" xlink:href="#ag"/><use transform="matrix(0.06234567901234567,0,0,0.06234567901234567,31.11049382716049,0)" xlink:href="#ah"/><use transform="matrix(0.06234567901234567,0,0,0.06234567901234567,42.33271604938271,0)" xlink:href="#af"/><use transform="matrix(0.06234567901234567,0,0,0.06234567901234567,54.80185185185184,0)" xlink:href="#ag"/></g><g id="R"><use transform="matrix(0.06234567901234567,0,0,0.06234567901234567,0,0)" xlink:href="#aD"/><use transform="matrix(0.06234567901234567,0,0,0.06234567901234567,6.234567901234566,0)" xlink:href="#aC"/></g><g id="S"><use transform="matrix(0.06234567901234567,0,0,0.06234567901234567,0,0)" xlink:href="#av"/><use transform="matrix(0.06234567901234567,0,0,0.06234567901234567,7.4191358024691345,0)" xlink:href="#Z"/><use transform="matrix(0.06234567901234567,0,0,0.06234567901234567,19.888271604938268,0)" xlink:href="#ai"/><use transform="matrix(0.06234567901234567,0,0,0.06234567901234567,32.3574074074074,0)" xlink:href="#al"/><use transform="matrix(0.06234567901234567,0,0,0.06234567901234567,38.59197530864196,0)" xlink:href="#an"/><use transform="matrix(0.06234567901234567,0,0,0.06234567901234567,51.061111111111096,0)" xlink:href="#ar"/><use transform="matrix(0.06234567901234567,0,0,0.06234567901234567,55.9864197530864,0)" xlink:href="#am"/><use transform="matrix(0.06234567901234567,0,0,0.06234567901234567,68.45555555555553,0)" xlink:href="#af"/><use transform="matrix(0.06234567901234567,0,0,0.06234567901234567,80.92469135802466,0)" xlink:href="#at"/></g><g id="T"><use transform="matrix(0.06234567901234567,0,0,0.06234567901234567,0,0)" xlink:href="#an"/><use transform="matrix(0.06234567901234567,0,0,0.06234567901234567,12.469135802469133,0)" xlink:href="#al"/></g><g id="U"><use transform="matrix(0.06234567901234567,0,0,0.06234567901234567,0,0)" xlink:href="#ai"/><use transform="matrix(0.06234567901234567,0,0,0.06234567901234567,12.469135802469133,0)" xlink:href="#Z"/><use transform="matrix(0.06234567901234567,0,0,0.06234567901234567,24.938271604938265,0)" xlink:href="#Z"/><use transform="matrix(0.06234567901234567,0,0,0.06234567901234567,37.4074074074074,0)" xlink:href="#al"/><use transform="matrix(0.06234567901234567,0,0,0.06234567901234567,43.64197530864196,0)" xlink:href="#aw"/></g><path d="M182-130c37 4 62 22 62 59C244 23 116-4 24 0v-248c84 5 203-23 205 63 0 31-19 50-47 55zM76-148c40-3 101 13 101-30 0-44-60-28-101-31v61zm0 110c48-3 116 14 116-37 0-48-69-32-116-35v72" id="aP"/><path d="M85 4C-2 5 27-109 22-190h50c7 57-23 150 33 157 60-5 35-97 40-157h50l1 190h-47c-2-12 1-28-3-38-12 25-28 42-61 42" id="aQ"/><path d="M115-3C79 11 28 4 28-45v-112H4v-33h27l15-45h31v45h36v33H77v99c-1 23 16 31 38 25v30" id="aR"/><path d="M110-194c64 0 96 36 96 99 0 64-35 99-97 99-61 0-95-36-95-99 0-62 34-99 96-99zm-1 164c35 0 45-28 45-65 0-40-10-65-43-65-34 0-45 26-45 65 0 36 10 65 43 65" id="aS"/><path d="M135-194c87-1 58 113 63 194h-50c-7-57 23-157-34-157-59 0-34 97-39 157H25l-1-190h47c2 12-1 28 3 38 12-26 28-41 61-42" id="aT"/><g id="V"><use transform="matrix(0.07469135802469135,0,0,0.07469135802469135,0,0)" xlink:href="#aP"/><use transform="matrix(0.07469135802469135,0,0,0.07469135802469135,19.34506172839506,0)" xlink:href="#aQ"/><use transform="matrix(0.07469135802469135,0,0,0.07469135802469135,35.70246913580246,0)" xlink:href="#aR"/><use transform="matrix(0.07469135802469135,0,0,0.07469135802469135,44.59074074074073,0)" xlink:href="#aR"/><use transform="matrix(0.07469135802469135,0,0,0.07469135802469135,53.479012345678996,0)" xlink:href="#aS"/><use transform="matrix(0.07469135802469135,0,0,0.07469135802469135,69.8364197530864,0)" xlink:href="#aT"/></g><path d="M169-182c-1-43-94-46-97-3 18 66 151 10 154 114 3 95-165 93-204 36-6-8-10-19-12-30l50-8c3 46 112 56 116 5-17-69-150-10-154-114-4-87 153-88 188-35 5 8 8 18 10 28" id="aU"/><path d="M121-226c-27-7-43 5-38 36h38v33H83V0H34v-157H6v-33h28c-9-59 32-81 87-68v32" id="aV"/><path d="M231 0h-52l-39-155L100 0H48L-1-190h46L77-45c9-52 24-97 36-145h53l37 145 32-145h46" id="aW"/><path d="M133-34C117-15 103 5 69 4 32 3 11-16 11-54c-1-60 55-63 116-61 1-26-3-47-28-47-18 1-26 9-28 27l-52-2c7-38 36-58 82-57s74 22 75 68l1 82c-1 14 12 18 25 15v27c-30 8-71 5-69-32zm-48 3c29 0 43-24 42-57-32 0-66-3-65 30 0 17 8 27 23 27" id="aX"/><path d="M135-150c-39-12-60 13-60 57V0H25l-1-190h47c2 13-1 29 3 40 6-28 27-53 61-41v41" id="aY"/><path d="M185-48c-13 30-37 53-82 52C43 2 14-33 14-96s30-98 90-98c62 0 83 45 84 108H66c0 31 8 55 39 56 18 0 30-7 34-22zm-45-69c5-46-57-63-70-21-2 6-4 13-4 21h74" id="aZ"/><g id="W"><use transform="matrix(0.07469135802469135,0,0,0.07469135802469135,0,0)" xlink:href="#aU"/><use transform="matrix(0.07469135802469135,0,0,0.07469135802469135,17.925925925925924,0)" xlink:href="#aS"/><use transform="matrix(0.07469135802469135,0,0,0.07469135802469135,34.28333333333333,0)" xlink:href="#aV"/><use transform="matrix(0.07469135802469135,0,0,0.07469135802469135,43.1716049382716,0)" xlink:href="#aR"/><use transform="matrix(0.07469135802469135,0,0,0.07469135802469135,52.05987654320987,0)" xlink:href="#aW"/><use transform="matrix(0.07469135802469135,0,0,0.07469135802469135,72.97345679012344,0)" xlink:href="#aX"/><use transform="matrix(0.07469135802469135,0,0,0.07469135802469135,87.9117283950617,0)" xlink:href="#aY"/><use transform="matrix(0.07469135802469135,0,0,0.07469135802469135,98.36851851851848,0)" xlink:href="#aZ"/></g><g id="X"><use transform="matrix(0.06234567901234567,0,0,0.06234567901234567,0,0)" xlink:href="#ay"/><use transform="matrix(0.06234567901234567,0,0,0.06234567901234567,14.96296296296296,0)" xlink:href="#al"/><use transform="matrix(0.06234567901234567,0,0,0.06234567901234567,21.197530864197525,0)" xlink:href="#an"/><use transform="matrix(0.06234567901234567,0,0,0.06234567901234567,33.66666666666666,0)" xlink:href="#ag"/><use transform="matrix(0.06234567901234567,0,0,0.06234567901234567,41.08580246913579,0)" xlink:href="#al"/></g></defs></g></svg>